<svg width="341" height="210" viewBox="0 0 341 210" fill="none" xmlns="http://www.w3.org/2000/svg">
<g id="1">
<g id="Rectangle 482" filter="url(#filter0_d_0_665)">
<rect x="59.6365" y="57" width="220.909" height="90" rx="12" fill="white"/>
<rect x="60.1365" y="57.5" width="219.909" height="89" rx="11.5" stroke="#F9F9F7"/>
</g>
<g id="Group">
<path id="Vector" d="M174.308 89.7285H191.21V93.8639H178.874V99.7361H190.866V103.731H178.874V109.702H191.21V113.838H174.308V89.7285ZM237.885 114.272C243.067 114.272 245.987 111.791 245.987 108.383C245.987 105.956 244.258 104.144 240.64 103.359L236.814 102.577C234.594 102.164 233.895 101.75 233.895 100.923C233.895 99.8519 234.966 99.1944 236.938 99.1944C239.076 99.1944 240.66 99.7692 241.074 101.746H245.557C245.313 98.0241 242.637 95.5676 237.211 95.5676C232.522 95.5676 229.23 97.503 229.23 101.254C229.23 103.847 231.041 105.534 234.949 106.357L239.225 107.345C240.913 107.676 241.363 108.131 241.363 108.83C241.363 109.942 240.09 110.641 238.03 110.641C235.441 110.641 233.961 110.066 233.386 108.09H228.879C229.536 111.803 232.29 114.272 237.885 114.272ZM227.576 113.821H222.725C219.682 113.821 217.994 111.927 217.994 109.537V100.067H214.583V96.0308H218.011V90.965H222.518V96.0308H227.576V100.067H222.518V108.383C222.518 109.33 223.176 109.785 224.206 109.785H227.576V113.821ZM208.14 96.0391V97.6436C206.553 96.302 204.54 95.5691 202.462 95.5759C201.218 95.5497 199.981 95.7722 198.824 96.2302C197.667 96.6882 196.613 97.3726 195.724 98.2433C194.835 99.1139 194.128 100.153 193.646 101.3C193.164 102.448 192.915 103.679 192.915 104.924C192.915 106.168 193.164 107.4 193.646 108.547C194.128 109.695 194.835 110.734 195.724 111.605C196.613 112.475 197.667 113.16 198.824 113.618C199.981 114.076 201.218 114.298 202.462 114.272C204.54 114.281 206.554 113.548 208.14 112.204V113.813H212.635V96.0308L208.14 96.0391ZM202.834 110.368C201.756 110.38 200.698 110.072 199.796 109.482C198.893 108.891 198.187 108.046 197.766 107.054C197.345 106.061 197.228 104.965 197.431 103.906C197.634 102.847 198.148 101.872 198.906 101.106C199.665 100.339 200.634 99.8155 201.691 99.6011C202.747 99.3866 203.844 99.4912 204.841 99.9016C205.839 100.312 206.691 101.009 207.291 101.906C207.891 102.802 208.211 103.856 208.21 104.934C208.217 105.645 208.082 106.35 207.814 107.009C207.547 107.667 207.151 108.266 206.65 108.771C206.149 109.275 205.554 109.676 204.897 109.948C204.241 110.221 203.537 110.361 202.826 110.36L202.834 110.368Z" fill="#05C167"/>
<path id="Vector_2" d="M164.251 99.368C161.989 99.368 160.385 101.138 160.385 103.855V113.821H156.932V96.2789H160.343V98.421C160.764 97.7111 161.367 97.1266 162.09 96.7281C162.813 96.3296 163.629 96.1317 164.454 96.1549H165.694V99.368H164.251ZM154.545 105.05C154.545 99.8188 150.824 95.9067 145.787 95.9067C144.597 95.9148 143.42 96.1581 142.324 96.6227C141.228 97.0872 140.235 97.7639 139.402 98.6136C138.569 99.4634 137.912 100.47 137.469 101.574C137.026 102.679 136.806 103.86 136.821 105.05C136.821 110.277 140.853 114.231 146.113 114.231C147.583 114.258 149.037 113.932 150.354 113.28C151.671 112.628 152.812 111.669 153.681 110.484L151.175 108.648C150.6 109.45 149.839 110.101 148.958 110.546C148.076 110.99 147.1 111.214 146.113 111.199C144.708 111.193 143.351 110.683 142.289 109.762C141.227 108.841 140.529 107.57 140.324 106.179H154.554L154.545 105.05ZM140.398 103.441C141.014 100.766 143.152 98.9545 145.745 98.9545C148.338 98.9545 150.472 100.766 151.051 103.441H140.398ZM125.883 95.9067C124.729 95.9077 123.587 96.1374 122.522 96.5824C121.457 97.0274 120.492 97.6791 119.68 98.4996V89.7285H116.227V113.821H119.639V111.596C121.292 113.268 123.541 114.216 125.891 114.231C127.111 114.256 128.323 114.039 129.458 113.59C130.592 113.141 131.625 112.47 132.497 111.617C133.368 110.764 134.061 109.745 134.534 108.62C135.007 107.496 135.25 106.288 135.25 105.069C135.25 103.849 135.007 102.641 134.534 101.517C134.061 100.392 133.368 99.3736 132.497 98.5203C131.625 97.667 130.592 96.9962 129.458 96.5474C128.323 96.0987 127.111 95.8808 125.891 95.9067H125.883ZM125.635 111.146C124.431 111.151 123.253 110.799 122.25 110.134C121.247 109.469 120.464 108.522 120 107.411C119.536 106.3 119.413 105.077 119.646 103.896C119.879 102.715 120.457 101.63 121.308 100.778C122.158 99.9265 123.242 99.3467 124.423 99.1123C125.604 98.8778 126.827 98.9994 127.939 99.4615C129.05 99.9236 129.999 100.705 130.665 101.708C131.332 102.71 131.685 103.888 131.681 105.091C131.682 105.885 131.526 106.672 131.223 107.405C130.919 108.139 130.474 108.805 129.912 109.366C129.35 109.927 128.683 110.371 127.949 110.674C127.215 110.977 126.429 111.131 125.635 111.129V111.146ZM103.511 110.98C106.844 110.98 109.433 108.424 109.433 104.595V89.7285H113.01V113.821H109.474V111.543C108.648 112.396 107.657 113.074 106.562 113.533C105.467 113.993 104.289 114.226 103.101 114.218C97.9612 114.218 94.0037 110.471 94.0037 104.79V89.7285H97.6469V104.616C97.6469 108.466 100.128 110.98 103.511 110.98Z" fill="black"/>
</g>
</g>
<defs>
<filter id="filter0_d_0_665" x="0.0620117" y="0.40426" width="340.058" height="209.149" filterUnits="userSpaceOnUse" color-interpolation-filters="sRGB">
<feFlood flood-opacity="0" result="BackgroundImageFix"/>
<feColorMatrix in="SourceAlpha" type="matrix" values="0 0 0 0 0 0 0 0 0 0 0 0 0 0 0 0 0 0 127 0" result="hardAlpha"/>
<feOffset dy="2.97872"/>
<feGaussianBlur stdDeviation="29.7872"/>
<feComposite in2="hardAlpha" operator="out"/>
<feColorMatrix type="matrix" values="0 0 0 0 0 0 0 0 0 0 0 0 0 0 0 0 0 0 0.08 0"/>
<feBlend mode="normal" in2="BackgroundImageFix" result="effect1_dropShadow_0_665"/>
<feBlend mode="normal" in="SourceGraphic" in2="effect1_dropShadow_0_665" result="shape"/>
</filter>
</defs>
</svg>
